<svg version="1.1" xmlns="http://www.w3.org/2000/svg" xmlns:xlink="http://www.w3.org/1999/xlink" width="1329.57080078125" height="669.5"><defs/><g><g transform="translate(-10,-10) scale(1,1)"><path fill="#C0C0C0" stroke="none" d="M 701.8927001953125 38.5 C 701.8927001953125 32.1487248 707.0414249953125 27 713.3927001953125 27 C 719.7439753953125 27 724.8927001953125 32.1487248 724.8927001953125 38.5 C 724.8927001953125 44.8512752 719.7439753953125 50 713.3927001953125 50 C 707.0414249953125 50 701.8927001953125 44.8512752 701.8927001953125 38.5 Z" opacity="0.2"/></g><g transform="translate(-10,-10) scale(1,1)"><path fill="#ffffff" stroke="none" d="M 694.8927001953125 31.5 C 694.8927001953125 25.1487248 700.0414249953125 20 706.3927001953125 20 C 712.7439753953125 20 717.8927001953125 25.1487248 717.8927001953125 31.5 C 717.8927001953125 37.8512752 712.7439753953125 43 706.3927001953125 43 C 700.0414249953125 43 694.8927001953125 37.8512752 694.8927001953125 31.5 Z"/></g><g transform="translate(-10,-10) scale(1,1)"><path fill="none" stroke="#000000" d="M 694.8927001953125 31.5 C 694.8927001953125 25.1487248 700.0414249953125 20 706.3927001953125 20 C 712.7439753953125 20 717.8927001953125 25.1487248 717.8927001953125 31.5 C 717.8927001953125 37.8512752 712.7439753953125 43 706.3927001953125 43 C 700.0414249953125 43 694.8927001953125 37.8512752 694.8927001953125 31.5 Z" stroke-miterlimit="10"/></g><g transform="translate(-10,-10) scale(1,1)"><path fill="none" stroke="#000000" d="M 661.6072998046875 68 L 751.1781005859375 68" stroke-miterlimit="10"/></g><g transform="translate(-10,-10) scale(1,1)"><g><path fill="none" stroke="none"/><text fill="#000000" stroke="none" font-family="Arial" font-size="13px" font-style="normal" font-weight="bold" text-decoration="none" x="682.1795654296875" y="62.5">Channel</text></g></g><g transform="translate(-10,-10) scale(1,1)"><g><path fill="none" stroke="none"/><text fill="#000000" stroke="none" font-family="Arial" font-size="13px" font-style="normal" font-weight="normal" text-decoration="none" x="666.6072998046875" y="85.5">+isOpen()</text></g></g><g transform="translate(-10,-10) scale(1,1)"><g><path fill="none" stroke="none"/><text fill="#000000" stroke="none" font-family="Arial" font-size="13px" font-style="normal" font-weight="normal" text-decoration="none" x="666.6072998046875" y="100.5">+close()</text></g></g><g transform="translate(-10,-10) scale(1,1)"><path fill="#C0C0C0" stroke="none" d="M 155.376953125 170.5 C 155.376953125 164.1487248 160.525677925 159 166.876953125 159 C 173.228228325 159 178.376953125 164.1487248 178.376953125 170.5 C 178.376953125 176.8512752 173.228228325 182 166.876953125 182 C 160.525677925 182 155.376953125 176.8512752 155.376953125 170.5 Z" opacity="0.2"/></g><g transform="translate(-10,-10) scale(1,1)"><path fill="#ffffff" stroke="none" d="M 148.376953125 163.5 C 148.376953125 157.1487248 153.525677925 152 159.876953125 152 C 166.228228325 152 171.376953125 157.1487248 171.376953125 163.5 C 171.376953125 169.8512752 166.228228325 175 159.876953125 175 C 153.525677925 175 148.376953125 169.8512752 148.376953125 163.5 Z"/></g><g transform="translate(-10,-10) scale(1,1)"><path fill="none" stroke="#000000" d="M 148.376953125 163.5 C 148.376953125 157.1487248 153.525677925 152 159.876953125 152 C 166.228228325 152 171.376953125 157.1487248 171.376953125 163.5 C 171.376953125 169.8512752 166.228228325 175 159.876953125 175 C 153.525677925 175 148.376953125 169.8512752 148.376953125 163.5 Z" stroke-miterlimit="10"/></g><g transform="translate(-10,-10) scale(1,1)"><path fill="none" stroke="#000000" d="M 86.74609375 200 L 233.0078125 200" stroke-miterlimit="10"/></g><g transform="translate(-10,-10) scale(1,1)"><g><path fill="none" stroke="none"/><text fill="#000000" stroke="none" font-family="Arial" font-size="13px" font-style="normal" font-weight="bold" text-decoration="none" x="94.829345703125" y="194.5">ReadableByteChannel</text></g></g><g transform="translate(-10,-10) scale(1,1)"><g><path fill="none" stroke="none"/><text fill="#000000" stroke="none" font-family="Arial" font-size="13px" font-style="normal" font-weight="normal" text-decoration="none" x="91.74609375" y="217.5">+read(ByteBuffer)</text></g></g><g transform="translate(-10,-10) scale(1,1)"><path fill="none" stroke="#000000" d="M 160 151 Q 160 122 661 68" stroke-miterlimit="10"/></g><g transform="translate(-10,-10) scale(1,1)"><path fill="#FFFFFF" stroke="none" d="M 641.6939114917304 78.54869406660654 L 661 68 L 639.8894807904551 61.80758700477467"/></g><g transform="translate(-10,-10) scale(1,1)"><path fill="none" stroke="#000000" d="M 641.6939114917304 78.54869406660654 L 661 68 L 639.8894807904551 61.80758700477467 L 641.6939114917304 78.54869406660654" stroke-miterlimit="10"/></g><g transform="translate(-10,-10) scale(1,1)"><path fill="#C0C0C0" stroke="none" d="M 333.349609375 170.5 C 333.349609375 164.1487248 338.498334175 159 344.849609375 159 C 351.200884575 159 356.349609375 164.1487248 356.349609375 170.5 C 356.349609375 176.8512752 351.200884575 182 344.849609375 182 C 338.498334175 182 333.349609375 176.8512752 333.349609375 170.5 Z" opacity="0.2"/></g><g transform="translate(-10,-10) scale(1,1)"><path fill="#ffffff" stroke="none" d="M 326.349609375 163.5 C 326.349609375 157.1487248 331.498334175 152 337.849609375 152 C 344.200884575 152 349.349609375 157.1487248 349.349609375 163.5 C 349.349609375 169.8512752 344.200884575 175 337.849609375 175 C 331.498334175 175 326.349609375 169.8512752 326.349609375 163.5 Z"/></g><g transform="translate(-10,-10) scale(1,1)"><path fill="none" stroke="#000000" d="M 326.349609375 163.5 C 326.349609375 157.1487248 331.498334175 152 337.849609375 152 C 344.200884575 152 349.349609375 157.1487248 349.349609375 163.5 C 349.349609375 169.8512752 344.200884575 175 337.849609375 175 C 331.498334175 175 326.349609375 169.8512752 326.349609375 163.5 Z" stroke-miterlimit="10"/></g><g transform="translate(-10,-10) scale(1,1)"><path fill="none" stroke="#000000" d="M 267.978271484375 200 L 407.720947265625 200" stroke-miterlimit="10"/></g><g transform="translate(-10,-10) scale(1,1)"><g><path fill="none" stroke="none"/><text fill="#000000" stroke="none" font-family="Arial" font-size="13px" font-style="normal" font-weight="bold" text-decoration="none" x="276.79150390625" y="194.5">WritableByteChannel</text></g></g><g transform="translate(-10,-10) scale(1,1)"><g><path fill="none" stroke="none"/><text fill="#000000" stroke="none" font-family="Arial" font-size="13px" font-style="normal" font-weight="normal" text-decoration="none" x="272.978271484375" y="217.5">+write(ByteBuffer)</text></g></g><g transform="translate(-10,-10) scale(1,1)"><path fill="none" stroke="#000000" d="M 338 151 Q 338 122 661 70" stroke-miterlimit="10"/></g><g transform="translate(-10,-10) scale(1,1)"><path fill="#FFFFFF" stroke="none" d="M 642.2711909673884 81.54260422175022 L 661 70 L 639.5948784117404 64.91858584724451"/></g><g transform="translate(-10,-10) scale(1,1)"><path fill="none" stroke="#000000" d="M 642.2711909673884 81.54260422175022 L 661 70 L 639.5948784117404 64.91858584724451 L 642.2711909673884 81.54260422175022" stroke-miterlimit="10"/></g><g transform="translate(-10,-10) scale(1,1)"><path fill="#C0C0C0" stroke="none" d="M 79.7540283203125 299 C 79.7540283203125 292.6487248 84.9027531203125 287.5 91.2540283203125 287.5 C 97.6053035203125 287.5 102.7540283203125 292.6487248 102.7540283203125 299 C 102.7540283203125 305.3512752 97.6053035203125 310.5 91.2540283203125 310.5 C 84.9027531203125 310.5 79.7540283203125 305.3512752 79.7540283203125 299 Z" opacity="0.2"/></g><g transform="translate(-10,-10) scale(1,1)"><path fill="#ffffff" stroke="none" d="M 72.7540283203125 292 C 72.7540283203125 285.6487248 77.9027531203125 280.5 84.2540283203125 280.5 C 90.6053035203125 280.5 95.7540283203125 285.6487248 95.7540283203125 292 C 95.7540283203125 298.3512752 90.6053035203125 303.5 84.2540283203125 303.5 C 77.9027531203125 303.5 72.7540283203125 298.3512752 72.7540283203125 292 Z"/></g><g transform="translate(-10,-10) scale(1,1)"><path fill="none" stroke="#000000" d="M 72.7540283203125 292 C 72.7540283203125 285.6487248 77.9027531203125 280.5 84.2540283203125 280.5 C 90.6053035203125 280.5 95.7540283203125 285.6487248 95.7540283203125 292 C 95.7540283203125 298.3512752 90.6053035203125 303.5 84.2540283203125 303.5 C 77.9027531203125 303.5 72.7540283203125 298.3512752 72.7540283203125 292 Z" stroke-miterlimit="10"/></g><g transform="translate(-10,-10) scale(1,1)"><g><path fill="none" stroke="none"/><text fill="#000000" stroke="none" font-family="Arial" font-size="13px" font-style="normal" font-weight="bold" text-decoration="none" x="47.0345458984375" y="323">ByteChannel</text></g></g><g transform="translate(-10,-10) scale(1,1)"><path fill="none" stroke="#000000" d="M 77 280 Q 70 254 110 224" stroke-miterlimit="10"/></g><g transform="translate(-10,-10) scale(1,1)"><path fill="#FFFFFF" stroke="none" d="M 98.79114153502054 242.93043823877457 L 110 224 L 88.68829892058217 229.45998141952342"/></g><g transform="translate(-10,-10) scale(1,1)"><path fill="none" stroke="#000000" d="M 98.79114153502054 242.93043823877457 L 110 224 L 88.68829892058217 229.45998141952342 L 98.79114153502054 242.93043823877457" stroke-miterlimit="10"/></g><g transform="translate(-10,-10) scale(1,1)"><path fill="none" stroke="#000000" d="M 128 280 Q 173 254 267 216" stroke-miterlimit="10"/></g><g transform="translate(-10,-10) scale(1,1)"><path fill="#FFFFFF" stroke="none" d="M 251.31152706807424 231.4230936282003 L 267 216 L 245.00080031199823 215.81234849474916"/></g><g transform="translate(-10,-10) scale(1,1)"><path fill="none" stroke="#000000" d="M 251.31152706807424 231.4230936282003 L 267 216 L 245.00080031199823 215.81234849474916 L 251.31152706807424 231.4230936282003" stroke-miterlimit="10"/></g><g transform="translate(-10,-10) scale(1,1)"><path fill="#C0C0C0" stroke="none" d="M 234.9178466796875 389.5 C 234.9178466796875 383.1487248 240.0665714796875 378 246.4178466796875 378 C 252.7691218796875 378 257.9178466796875 383.1487248 257.9178466796875 389.5 C 257.9178466796875 395.8512752 252.7691218796875 401 246.4178466796875 401 C 240.0665714796875 401 234.9178466796875 395.8512752 234.9178466796875 389.5 Z" opacity="0.2"/></g><g transform="translate(-10,-10) scale(1,1)"><path fill="#ffffff" stroke="none" d="M 227.9178466796875 382.5 C 227.9178466796875 376.1487248 233.0665714796875 371 239.4178466796875 371 C 245.7691218796875 371 250.9178466796875 376.1487248 250.9178466796875 382.5 C 250.9178466796875 388.8512752 245.7691218796875 394 239.4178466796875 394 C 233.0665714796875 394 227.9178466796875 388.8512752 227.9178466796875 382.5 Z"/></g><g transform="translate(-10,-10) scale(1,1)"><path fill="none" stroke="#000000" d="M 227.9178466796875 382.5 C 227.9178466796875 376.1487248 233.0665714796875 371 239.4178466796875 371 C 245.7691218796875 371 250.9178466796875 376.1487248 250.9178466796875 382.5 C 250.9178466796875 388.8512752 245.7691218796875 394 239.4178466796875 394 C 233.0665714796875 394 227.9178466796875 388.8512752 227.9178466796875 382.5 Z" stroke-miterlimit="10"/></g><g transform="translate(-10,-10) scale(1,1)"><path fill="none" stroke="#000000" d="M 167.0010986328125 419 L 311.8345947265625 419" stroke-miterlimit="10"/></g><g transform="translate(-10,-10) scale(1,1)"><g><path fill="none" stroke="none"/><text fill="#000000" stroke="none" font-family="Arial" font-size="13px" font-style="normal" font-weight="bold" text-decoration="none" x="175.0938720703125" y="413.5">SeekableByteChannel</text></g></g><g transform="translate(-10,-10) scale(1,1)"><g><path fill="none" stroke="none"/><text fill="#000000" stroke="none" font-family="Arial" font-size="13px" font-style="normal" font-weight="normal" text-decoration="none" x="172.0010986328125" y="436.5">+position()</text></g></g><g transform="translate(-10,-10) scale(1,1)"><g><path fill="none" stroke="none"/><text fill="#000000" stroke="none" font-family="Arial" font-size="13px" font-style="normal" font-weight="normal" text-decoration="none" x="172.0010986328125" y="451.5">+position(long)</text></g></g><g transform="translate(-10,-10) scale(1,1)"><g><path fill="none" stroke="none"/><text fill="#000000" stroke="none" font-family="Arial" font-size="13px" font-style="normal" font-weight="normal" text-decoration="none" x="172.0010986328125" y="466.5">+size()</text></g></g><g transform="translate(-10,-10) scale(1,1)"><g><path fill="none" stroke="none"/><text fill="#000000" stroke="none" font-family="Arial" font-size="13px" font-style="normal" font-weight="normal" text-decoration="none" x="172.0010986328125" y="481.5">+truncate()</text></g></g><g transform="translate(-10,-10) scale(1,1)"><path fill="none" stroke="#000000" d="M 240 370 Q 240 356 129 319" stroke-miterlimit="10"/></g><g transform="translate(-10,-10) scale(1,1)"><path fill="#FFFFFF" stroke="none" d="M 150.94465259387812 317.44044155800503 L 129 319 L 145.61998700990554 333.41443830992284"/></g><g transform="translate(-10,-10) scale(1,1)"><path fill="none" stroke="#000000" d="M 150.94465259387812 317.44044155800503 L 129 319 L 145.61998700990554 333.41443830992284 L 150.94465259387812 317.44044155800503" stroke-miterlimit="10"/></g><g transform="translate(-10,-10) scale(1,1)"><path fill="#C0C0C0" stroke="none" d="M 257.3780517578125 287.5 C 257.3780517578125 281.1487248 262.5267765578125 276 268.8780517578125 276 C 275.2293269578125 276 280.3780517578125 281.1487248 280.3780517578125 287.5 C 280.3780517578125 293.8512752 275.2293269578125 299 268.8780517578125 299 C 262.5267765578125 299 257.3780517578125 293.8512752 257.3780517578125 287.5 Z" opacity="0.2"/></g><g transform="translate(-10,-10) scale(1,1)"><path fill="#ffffff" stroke="none" d="M 250.3780517578125 280.5 C 250.3780517578125 274.1487248 255.5267765578125 269 261.8780517578125 269 C 268.2293269578125 269 273.3780517578125 274.1487248 273.3780517578125 280.5 C 273.3780517578125 286.8512752 268.2293269578125 292 261.8780517578125 292 C 255.5267765578125 292 250.3780517578125 286.8512752 250.3780517578125 280.5 Z"/></g><g transform="translate(-10,-10) scale(1,1)"><path fill="none" stroke="#000000" d="M 250.3780517578125 280.5 C 250.3780517578125 274.1487248 255.5267765578125 269 261.8780517578125 269 C 268.2293269578125 269 273.3780517578125 274.1487248 273.3780517578125 280.5 C 273.3780517578125 286.8512752 268.2293269578125 292 261.8780517578125 292 C 255.5267765578125 292 250.3780517578125 286.8512752 250.3780517578125 280.5 Z" stroke-miterlimit="10"/></g><g transform="translate(-10,-10) scale(1,1)"><path fill="none" stroke="#000000" d="M 185.8621826171875 317 L 337.8939208984375 317" stroke-miterlimit="10"/></g><g transform="translate(-10,-10) scale(1,1)"><g><path fill="none" stroke="none"/><text fill="#000000" stroke="none" font-family="Arial" font-size="13px" font-style="normal" font-weight="bold" text-decoration="none" x="195.3927001953125" y="311.5">ScatteringByteChannel</text></g></g><g transform="translate(-10,-10) scale(1,1)"><g><path fill="none" stroke="none"/><text fill="#000000" stroke="none" font-family="Arial" font-size="13px" font-style="normal" font-weight="normal" text-decoration="none" x="190.8621826171875" y="334.5">+read(ByteBuffer[])</text></g></g><g transform="translate(-10,-10) scale(1,1)"><path fill="none" stroke="#000000" d="M 262 268 Q 262 254 216 224" stroke-miterlimit="10"/></g><g transform="translate(-10,-10) scale(1,1)"><path fill="#FFFFFF" stroke="none" d="M 237.62377614944612 228.05121031775013 L 216 224 L 228.42568046243926 242.1549570378273"/></g><g transform="translate(-10,-10) scale(1,1)"><path fill="none" stroke="#000000" d="M 237.62377614944612 228.05121031775013 L 216 224 L 228.42568046243926 242.1549570378273 L 237.62377614944612 228.05121031775013" stroke-miterlimit="10"/></g><g transform="translate(-10,-10) scale(1,1)"><path fill="#C0C0C0" stroke="none" d="M 466.266357421875 287.5 C 466.266357421875 281.1487248 471.415082221875 276 477.766357421875 276 C 484.117632621875 276 489.266357421875 281.1487248 489.266357421875 287.5 C 489.266357421875 293.8512752 484.117632621875 299 477.766357421875 299 C 471.415082221875 299 466.266357421875 293.8512752 466.266357421875 287.5 Z" opacity="0.2"/></g><g transform="translate(-10,-10) scale(1,1)"><path fill="#ffffff" stroke="none" d="M 459.266357421875 280.5 C 459.266357421875 274.1487248 464.415082221875 269 470.766357421875 269 C 477.117632621875 269 482.266357421875 274.1487248 482.266357421875 280.5 C 482.266357421875 286.8512752 477.117632621875 292 470.766357421875 292 C 464.415082221875 292 459.266357421875 286.8512752 459.266357421875 280.5 Z"/></g><g transform="translate(-10,-10) scale(1,1)"><path fill="none" stroke="#000000" d="M 459.266357421875 280.5 C 459.266357421875 274.1487248 464.415082221875 269 470.766357421875 269 C 477.117632621875 269 482.266357421875 274.1487248 482.266357421875 280.5 C 482.266357421875 286.8512752 477.117632621875 292 470.766357421875 292 C 464.415082221875 292 459.266357421875 286.8512752 459.266357421875 280.5 Z" stroke-miterlimit="10"/></g><g transform="translate(-10,-10) scale(1,1)"><path fill="none" stroke="#000000" d="M 395.839111328125 317 L 545.693603515625 317" stroke-miterlimit="10"/></g><g transform="translate(-10,-10) scale(1,1)"><g><path fill="none" stroke="none"/><text fill="#000000" stroke="none" font-family="Arial" font-size="13px" font-style="normal" font-weight="bold" text-decoration="none" x="405.00146484375" y="311.5">GatheringByteChannel</text></g></g><g transform="translate(-10,-10) scale(1,1)"><g><path fill="none" stroke="none"/><text fill="#000000" stroke="none" font-family="Arial" font-size="13px" font-style="normal" font-weight="normal" text-decoration="none" x="400.839111328125" y="334.5">+write(ByteBuffer[])</text></g></g><g transform="translate(-10,-10) scale(1,1)"><path fill="none" stroke="#000000" d="M 471 268 Q 471 254 409 223" stroke-miterlimit="10"/></g><g transform="translate(-10,-10) scale(1,1)"><path fill="#FFFFFF" stroke="none" d="M 430.9446525938781 224.55955844199494 L 409 223 L 423.41443830992284 239.61998700990554"/></g><g transform="translate(-10,-10) scale(1,1)"><path fill="none" stroke="#000000" d="M 430.9446525938781 224.55955844199494 L 409 223 L 423.41443830992284 239.61998700990554 L 430.9446525938781 224.55955844199494" stroke-miterlimit="10"/></g><g transform="translate(-10,-10) scale(1,1)"><path fill="#C0C0C0" stroke="none" d="M 652.6131591796875 170.5 C 652.6131591796875 164.1487248 657.7618839796875 159 664.1131591796875 159 C 670.4644343796875 159 675.6131591796875 164.1487248 675.6131591796875 170.5 C 675.6131591796875 176.8512752 670.4644343796875 182 664.1131591796875 182 C 657.7618839796875 182 652.6131591796875 176.8512752 652.6131591796875 170.5 Z" opacity="0.2"/></g><g transform="translate(-10,-10) scale(1,1)"><path fill="#ffffff" stroke="none" d="M 645.6131591796875 163.5 C 645.6131591796875 157.1487248 650.7618839796875 152 657.1131591796875 152 C 663.4644343796875 152 668.6131591796875 157.1487248 668.6131591796875 163.5 C 668.6131591796875 169.8512752 663.4644343796875 175 657.1131591796875 175 C 650.7618839796875 175 645.6131591796875 169.8512752 645.6131591796875 163.5 Z"/></g><g transform="translate(-10,-10) scale(1,1)"><path fill="none" stroke="#000000" d="M 645.6131591796875 163.5 C 645.6131591796875 157.1487248 650.7618839796875 152 657.1131591796875 152 C 663.4644343796875 152 668.6131591796875 157.1487248 668.6131591796875 163.5 C 668.6131591796875 169.8512752 663.4644343796875 175 657.1131591796875 175 C 650.7618839796875 175 645.6131591796875 169.8512752 645.6131591796875 163.5 Z" stroke-miterlimit="10"/></g><g transform="translate(-10,-10) scale(1,1)"><path fill="none" stroke="#000000" d="M 589.0540771484375 200 L 725.1722412109375 200" stroke-miterlimit="10"/></g><g transform="translate(-10,-10) scale(1,1)"><g><path fill="none" stroke="none"/><text fill="#000000" stroke="none" font-family="Arial" font-size="13px" font-style="normal" font-weight="bold" text-decoration="none" x="598.5750732421875" y="194.5">InterruptibleChannel</text></g></g><g transform="translate(-10,-10) scale(1,1)"><g><path fill="none" stroke="none"/><text fill="#000000" stroke="none" font-family="Arial" font-size="13px" font-style="normal" font-weight="normal" text-decoration="none" x="594.0540771484375" y="217.5">+close()</text></g></g><g transform="translate(-10,-10) scale(1,1)"><path fill="none" stroke="#000000" d="M 658 151 Q 658 122 670 107" stroke-miterlimit="10"/></g><g transform="translate(-10,-10) scale(1,1)"><path fill="#FFFFFF" stroke="none" d="M 663.8770169300117 128.1307614232104 L 670 107 L 650.7286924561337 117.61210184410798"/></g><g transform="translate(-10,-10) scale(1,1)"><path fill="none" stroke="#000000" d="M 663.8770169300117 128.1307614232104 L 670 107 L 650.7286924561337 117.61210184410798 L 663.8770169300117 128.1307614232104" stroke-miterlimit="10"/></g><g transform="translate(-10,-10) scale(1,1)"><rect fill="#C0C0C0" stroke="none" x="617.2611083984375" y="289.5" width="188.8544921875" height="44" opacity="0.2"/></g><g transform="translate(-10,-10) scale(1,1)"><rect fill="#ffffff" stroke="none" x="610.2611083984375" y="282.5" width="188.8544921875" height="44"/></g><g transform="translate(-10,-10) scale(1,1)"><path fill="none" stroke="#000000" d="M 610.2611083984375 282.5 L 799.1156005859375 282.5 L 799.1156005859375 326.5 L 610.2611083984375 326.5 L 610.2611083984375 282.5 Z Z" stroke-miterlimit="10"/></g><g transform="translate(-10,-10) scale(1,1)"><path fill="none" stroke="#000000" d="M 610.2611083984375 307.5 L 799.1156005859375 307.5" stroke-miterlimit="10"/></g><g transform="translate(-10,-10) scale(1,1)"><path fill="none" stroke="#000000" d="M 610.2611083984375 317.5 L 799.1156005859375 317.5" stroke-miterlimit="10"/></g><g transform="translate(-10,-10) scale(1,1)"><g><path fill="none" stroke="none"/><text fill="#000000" stroke="none" font-family="Arial" font-size="13px" font-style="italic" font-weight="bold" text-decoration="none" x="622.3084716796875" y="302">AbstractInterruptibleChannel</text></g></g><g transform="translate(-10,-10) scale(1,1)"><path fill="none" stroke="#000000" d="M 727 282 Q 756 254 756 188 Q 756 122 711.8421052631579 43" stroke-miterlimit="10"/></g><g transform="translate(-10,-10) scale(1,1)"><path fill="none" stroke="#000000" d="M 683 282 Q 658 254 657.1967213114754 175" stroke-miterlimit="10"/></g><g transform="translate(-10,-10) scale(1,1)"><rect fill="#C0C0C0" stroke="none" x="380.3382568359375" y="525" width="89.57080078125" height="57" opacity="0.2"/></g><g transform="translate(-10,-10) scale(1,1)"><rect fill="#ffffff" stroke="none" x="373.3382568359375" y="518" width="89.57080078125" height="57"/></g><g transform="translate(-10,-10) scale(1,1)"><path fill="none" stroke="#000000" d="M 373.3382568359375 518 L 462.9090576171875 518 L 462.9090576171875 575 L 373.3382568359375 575 L 373.3382568359375 518 Z Z" stroke-miterlimit="10"/></g><g transform="translate(-10,-10) scale(1,1)"><path fill="none" stroke="#000000" d="M 373.3382568359375 543 L 462.9090576171875 543" stroke-miterlimit="10"/></g><g transform="translate(-10,-10) scale(1,1)"><path fill="none" stroke="#000000" d="M 373.3382568359375 553 L 462.9090576171875 553" stroke-miterlimit="10"/></g><g transform="translate(-10,-10) scale(1,1)"><g><path fill="none" stroke="none"/><text fill="#000000" stroke="none" font-family="Arial" font-size="13px" font-style="italic" font-weight="bold" text-decoration="none" x="383.4368896484375" y="537.5">FileChannel</text></g></g><g transform="translate(-10,-10) scale(1,1)"><g><path fill="none" stroke="none"/><text fill="#000000" stroke="none" font-family="Arial" font-size="13px" font-style="normal" font-weight="normal" text-decoration="none" x="378.3382568359375" y="570.5">+open()</text></g></g><g transform="translate(-10,-10) scale(1,1)"><path fill="none" stroke="#000000" d="M 464 538 Q 661 503 661 429.5 Q 661 356 685 328" stroke-miterlimit="10"/></g><g transform="translate(-10,-10) scale(1,1)"><path fill="#FFFFFF" stroke="none" d="M 678.1646460408989 348.91119165073576 L 685 328 L 665.3802294447825 337.953120282636"/></g><g transform="translate(-10,-10) scale(1,1)"><path fill="none" stroke="#000000" d="M 678.1646460408989 348.91119165073576 L 685 328 L 665.3802294447825 337.953120282636 L 678.1646460408989 348.91119165073576" stroke-miterlimit="10"/></g><g transform="translate(-10,-10) scale(1,1)"><path fill="none" stroke="#000000" d="M 384 517 Q 367 503 367 429.5 Q 367 356 273.3780517578125 290.0674820963542" stroke-miterlimit="10"/></g><g transform="translate(-10,-10) scale(1,1)"><path fill="none" stroke="#000000" d="M 372 535 Q 240 503 239.11320754716982 394" stroke-miterlimit="10"/></g><g transform="translate(-10,-10) scale(1,1)"><path fill="none" stroke="#000000" d="M 447 517 Q 461 503 461 429.5 Q 461 356 468.8196721311475 292" stroke-miterlimit="10"/></g><g transform="translate(-10,-10) scale(1,1)"><path fill="#C0C0C0" stroke="none" d="M 872.590576171875 155.5 C 872.590576171875 149.1487248 877.739300971875 144 884.090576171875 144 C 890.441851371875 144 895.590576171875 149.1487248 895.590576171875 155.5 C 895.590576171875 161.8512752 890.441851371875 167 884.090576171875 167 C 877.739300971875 167 872.590576171875 161.8512752 872.590576171875 155.5 Z" opacity="0.2"/></g><g transform="translate(-10,-10) scale(1,1)"><path fill="#ffffff" stroke="none" d="M 865.590576171875 148.5 C 865.590576171875 142.1487248 870.739300971875 137 877.090576171875 137 C 883.441851371875 137 888.590576171875 142.1487248 888.590576171875 148.5 C 888.590576171875 154.8512752 883.441851371875 160 877.090576171875 160 C 870.739300971875 160 865.590576171875 154.8512752 865.590576171875 148.5 Z"/></g><g transform="translate(-10,-10) scale(1,1)"><path fill="none" stroke="#000000" d="M 865.590576171875 148.5 C 865.590576171875 142.1487248 870.739300971875 137 877.090576171875 137 C 883.441851371875 137 888.590576171875 142.1487248 888.590576171875 148.5 C 888.590576171875 154.8512752 883.441851371875 160 877.090576171875 160 C 870.739300971875 160 865.590576171875 154.8512752 865.590576171875 148.5 Z" stroke-miterlimit="10"/></g><g transform="translate(-10,-10) scale(1,1)"><path fill="none" stroke="#000000" d="M 790.039306640625 185 L 964.141845703125 185" stroke-miterlimit="10"/></g><g transform="translate(-10,-10) scale(1,1)"><g><path fill="none" stroke="none"/><text fill="#000000" stroke="none" font-family="Arial" font-size="13px" font-style="normal" font-weight="bold" text-decoration="none" x="829.038818359375" y="179.5">NetworkChannel</text></g></g><g transform="translate(-10,-10) scale(1,1)"><g><path fill="none" stroke="none"/><text fill="#000000" stroke="none" font-family="Arial" font-size="13px" font-style="normal" font-weight="normal" text-decoration="none" x="795.039306640625" y="202.5">+bind(SocketAddress)</text></g></g><g transform="translate(-10,-10) scale(1,1)"><g><path fill="none" stroke="none"/><text fill="#000000" stroke="none" font-family="Arial" font-size="13px" font-style="normal" font-weight="normal" text-decoration="none" x="795.039306640625" y="217.5">+setOption(SocketOption, T)</text></g></g><g transform="translate(-10,-10) scale(1,1)"><g><path fill="none" stroke="none"/><text fill="#000000" stroke="none" font-family="Arial" font-size="13px" font-style="normal" font-weight="normal" text-decoration="none" x="795.039306640625" y="232.5">+getOption(SocketOption)</text></g></g><g transform="translate(-10,-10) scale(1,1)"><path fill="none" stroke="#000000" d="M 866 136 Q 863 122 752 80" stroke-miterlimit="10"/></g><g transform="translate(-10,-10) scale(1,1)"><path fill="#FFFFFF" stroke="none" d="M 773.9894504022366 79.31877242600078 L 752 80 L 768.0305901310928 95.06718885688063"/></g><g transform="translate(-10,-10) scale(1,1)"><path fill="none" stroke="#000000" d="M 773.9894504022366 79.31877242600078 L 752 80 L 768.0305901310928 95.06718885688063 L 773.9894504022366 79.31877242600078" stroke-miterlimit="10"/></g><g transform="translate(-10,-10) scale(1,1)"><path fill="#ffffff" stroke="none" d="M 857.590576171875 38 L 945.590576171875 38 L 955.590576171875 48 L 955.590576171875 87 L 857.590576171875 87 L 857.590576171875 38"/></g><g transform="translate(-10,-10) scale(1,1)"><path fill="none" stroke="#000000" d="M 857.590576171875 38 L 945.590576171875 38 L 955.590576171875 48 L 955.590576171875 87 L 857.590576171875 87 L 857.590576171875 38 L 857.590576171875 38" stroke-miterlimit="10"/></g><g transform="translate(-10,-10) scale(1,1)"><path fill="none" stroke="#000000" d="M 945.590576171875 38 L 945.590576171875 48 L 955.590576171875 48 L 945.590576171875 38" stroke-miterlimit="10"/></g><g transform="translate(-10,-10) scale(1,1)"><g><path fill="none" stroke="none"/><text fill="#000000" stroke="none" font-family="Arial" font-size="13px" font-style="normal" font-weight="normal" text-decoration="none" x="862.590576171875" y="56">A channel to a</text><text fill="#000000" stroke="none" font-family="Arial" font-size="13px" font-style="normal" font-weight="normal" text-decoration="none" x="862.590576171875" y="69">network socket</text></g></g><g transform="translate(-10,-10) scale(1,1)"><path fill="none" stroke="#000000" d="M 890 136 Q 893 122 901 89" stroke-miterlimit="10" stroke-dasharray="3"/></g><g transform="translate(-10,-10) scale(1,1)"><rect fill="#C0C0C0" stroke="none" x="914.590576171875" y="400" width="182.037109375" height="72" opacity="0.2"/></g><g transform="translate(-10,-10) scale(1,1)"><rect fill="#ffffff" stroke="none" x="907.590576171875" y="393" width="182.037109375" height="72"/></g><g transform="translate(-10,-10) scale(1,1)"><path fill="none" stroke="#000000" d="M 907.590576171875 393 L 1089.627685546875 393 L 1089.627685546875 465 L 907.590576171875 465 L 907.590576171875 393 Z Z" stroke-miterlimit="10"/></g><g transform="translate(-10,-10) scale(1,1)"><path fill="none" stroke="#000000" d="M 907.590576171875 418 L 1089.627685546875 418" stroke-miterlimit="10"/></g><g transform="translate(-10,-10) scale(1,1)"><path fill="none" stroke="#000000" d="M 907.590576171875 428 L 1089.627685546875 428" stroke-miterlimit="10"/></g><g transform="translate(-10,-10) scale(1,1)"><g><path fill="none" stroke="none"/><text fill="#000000" stroke="none" font-family="Arial" font-size="13px" font-style="italic" font-weight="bold" text-decoration="none" x="944.04150390625" y="412.5">SelectableChannel</text></g></g><g transform="translate(-10,-10) scale(1,1)"><g><path fill="none" stroke="none"/><text fill="#000000" stroke="none" font-family="Arial" font-size="13px" font-style="normal" font-weight="normal" text-decoration="none" x="912.590576171875" y="445.5">+configureBlocking(boolean)</text></g></g><g transform="translate(-10,-10) scale(1,1)"><g><path fill="none" stroke="none"/><text fill="#000000" stroke="none" font-family="Arial" font-size="13px" font-style="normal" font-weight="normal" text-decoration="none" x="912.590576171875" y="460.5">+register(Selector, int, Object)</text></g></g><g transform="translate(-10,-10) scale(1,1)"><path fill="none" stroke="#000000" d="M 991 392 Q 984 356 800 322" stroke-miterlimit="10"/></g><g transform="translate(-10,-10) scale(1,1)"><path fill="#FFFFFF" stroke="none" d="M 821.5167832101275 317.41436587936056 L 800 322 L 818.4571962999466 333.9721303344575"/></g><g transform="translate(-10,-10) scale(1,1)"><path fill="none" stroke="#000000" d="M 821.5167832101275 317.41436587936056 L 800 322 L 818.4571962999466 333.9721303344575 L 821.5167832101275 317.41436587936056" stroke-miterlimit="10"/></g><g transform="translate(-10,-10) scale(1,1)"><rect fill="#C0C0C0" stroke="none" x="916.9423828125" y="531.5" width="177.33349609375" height="44" opacity="0.2"/></g><g transform="translate(-10,-10) scale(1,1)"><rect fill="#ffffff" stroke="none" x="909.9423828125" y="524.5" width="177.33349609375" height="44"/></g><g transform="translate(-10,-10) scale(1,1)"><path fill="none" stroke="#000000" d="M 909.9423828125 524.5 L 1087.27587890625 524.5 L 1087.27587890625 568.5 L 909.9423828125 568.5 L 909.9423828125 524.5 Z Z" stroke-miterlimit="10"/></g><g transform="translate(-10,-10) scale(1,1)"><path fill="none" stroke="#000000" d="M 909.9423828125 549.5 L 1087.27587890625 549.5" stroke-miterlimit="10"/></g><g transform="translate(-10,-10) scale(1,1)"><path fill="none" stroke="#000000" d="M 909.9423828125 559.5 L 1087.27587890625 559.5" stroke-miterlimit="10"/></g><g transform="translate(-10,-10) scale(1,1)"><g><path fill="none" stroke="none"/><text fill="#000000" stroke="none" font-family="Arial" font-size="13px" font-style="italic" font-weight="bold" text-decoration="none" x="920.19970703125" y="544">AbstractSelectableChannel</text></g></g><g transform="translate(-10,-10) scale(1,1)"><path fill="none" stroke="#000000" d="M 999 524 Q 999 503 999 466" stroke-miterlimit="10"/></g><g transform="translate(-10,-10) scale(1,1)"><path fill="#FFFFFF" stroke="none" d="M 1007.419035512032 486.3253497152483 L 999 466 L 990.580964487968 486.3253497152483"/></g><g transform="translate(-10,-10) scale(1,1)"><path fill="none" stroke="#000000" d="M 1007.419035512032 486.3253497152483 L 999 466 L 990.580964487968 486.3253497152483 L 1007.419035512032 486.3253497152483" stroke-miterlimit="10"/></g><g transform="translate(-10,-10) scale(1,1)"><rect fill="#C0C0C0" stroke="none" x="1007.7886962890625" y="613" width="143.392578125" height="57" opacity="0.2"/></g><g transform="translate(-10,-10) scale(1,1)"><rect fill="#ffffff" stroke="none" x="1000.7886962890625" y="606" width="143.392578125" height="57"/></g><g transform="translate(-10,-10) scale(1,1)"><path fill="none" stroke="#000000" d="M 1000.7886962890625 606 L 1144.1812744140625 606 L 1144.1812744140625 663 L 1000.7886962890625 663 L 1000.7886962890625 606 Z Z" stroke-miterlimit="10"/></g><g transform="translate(-10,-10) scale(1,1)"><path fill="none" stroke="#000000" d="M 1000.7886962890625 631 L 1144.1812744140625 631" stroke-miterlimit="10"/></g><g transform="translate(-10,-10) scale(1,1)"><path fill="none" stroke="#000000" d="M 1000.7886962890625 641 L 1144.1812744140625 641" stroke-miterlimit="10"/></g><g transform="translate(-10,-10) scale(1,1)"><g><path fill="none" stroke="none"/><text fill="#000000" stroke="none" font-family="Arial" font-size="13px" font-style="italic" font-weight="bold" text-decoration="none" x="1009.2559814453125" y="625.5">ServerSocketChannel</text></g></g><g transform="translate(-10,-10) scale(1,1)"><g><path fill="none" stroke="none"/><text fill="#000000" stroke="none" font-family="Arial" font-size="13px" font-style="normal" font-weight="normal" text-decoration="none" x="1005.7886962890625" y="658.5">+open()</text></g></g><g transform="translate(-10,-10) scale(1,1)"><path fill="none" stroke="#000000" d="M 1033 605 Q 1014 591 1006 570" stroke-miterlimit="10"/></g><g transform="translate(-10,-10) scale(1,1)"><path fill="#FFFFFF" stroke="none" d="M 1021.1032149562268 585.9966527119271 L 1006 570 L 1005.3682441043762 591.9909273221559"/></g><g transform="translate(-10,-10) scale(1,1)"><path fill="none" stroke="#000000" d="M 1021.1032149562268 585.9966527119271 L 1006 570 L 1005.3682441043762 591.9909273221559 L 1021.1032149562268 585.9966527119271" stroke-miterlimit="10"/></g><g transform="translate(-10,-10) scale(1,1)"><path fill="none" stroke="#000000" d="M 1105 605 Q 1121 591 1121 422.5 Q 1121 254 965 211" stroke-miterlimit="10"/></g><g transform="translate(-10,-10) scale(1,1)"><path fill="#FFFFFF" stroke="none" d="M 986.8317954475102 208.28472698645785 L 965 211 L 982.3573985670606 224.51742264576362"/></g><g transform="translate(-10,-10) scale(1,1)"><path fill="none" stroke="#000000" d="M 986.8317954475102 208.28472698645785 L 965 211 L 982.3573985670606 224.51742264576362 L 986.8317954475102 208.28472698645785" stroke-miterlimit="10"/></g><g transform="translate(-10,-10) scale(1,1)"><path fill="none" stroke="#000000" d="M 1006 392 Q 1014 356 1014 239 Q 1014 122 717.8927001953125 41.60001539147419" stroke-miterlimit="10"/></g><g transform="translate(-10,-10) scale(1,1)"><rect fill="#C0C0C0" stroke="none" x="541.48681640625" y="619.5" width="102.91357421875" height="57" opacity="0.2"/></g><g transform="translate(-10,-10) scale(1,1)"><rect fill="#ffffff" stroke="none" x="534.48681640625" y="612.5" width="102.91357421875" height="57"/></g><g transform="translate(-10,-10) scale(1,1)"><path fill="none" stroke="#000000" d="M 534.48681640625 612.5 L 637.400390625 612.5 L 637.400390625 669.5 L 534.48681640625 669.5 L 534.48681640625 612.5 Z Z" stroke-miterlimit="10"/></g><g transform="translate(-10,-10) scale(1,1)"><path fill="none" stroke="#000000" d="M 534.48681640625 637.5 L 637.400390625 637.5" stroke-miterlimit="10"/></g><g transform="translate(-10,-10) scale(1,1)"><path fill="none" stroke="#000000" d="M 534.48681640625 647.5 L 637.400390625 647.5" stroke-miterlimit="10"/></g><g transform="translate(-10,-10) scale(1,1)"><g><path fill="none" stroke="none"/><text fill="#000000" stroke="none" font-family="Arial" font-size="13px" font-style="italic" font-weight="bold" text-decoration="none" x="541.859130859375" y="632">SocketChannel</text></g></g><g transform="translate(-10,-10) scale(1,1)"><g><path fill="none" stroke="none"/><text fill="#000000" stroke="none" font-family="Arial" font-size="13px" font-style="normal" font-weight="normal" text-decoration="none" x="539.48681640625" y="665">+open()</text></g></g><g transform="translate(-10,-10) scale(1,1)"><path fill="none" stroke="#000000" d="M 638 634 Q 983 591 990 570" stroke-miterlimit="10"/></g><g transform="translate(-10,-10) scale(1,1)"><path fill="#FFFFFF" stroke="none" d="M 991.5595584419949 591.9446525938781 L 990 570 L 975.5855616900772 586.6199870099056"/></g><g transform="translate(-10,-10) scale(1,1)"><path fill="none" stroke="#000000" d="M 991.5595584419949 591.9446525938781 L 990 570 L 975.5855616900772 586.6199870099056 L 991.5595584419949 591.9446525938781" stroke-miterlimit="10"/></g><g transform="translate(-10,-10) scale(1,1)"><path fill="none" stroke="#000000" d="M 533 636 Q 20 591 20 473.5 Q 20 356 74.61842105263158 303.5" stroke-miterlimit="10"/></g><g transform="translate(-10,-10) scale(1,1)"><path fill="none" stroke="#000000" d="M 533 635 Q 137 591 137 473.5 Q 137 356 250.3780517578125 287.82669870476974" stroke-miterlimit="10"/></g><g transform="translate(-10,-10) scale(1,1)"><path fill="none" stroke="#000000" d="M 638 616 Q 691 591 691 473.5 Q 691 356 482.266357421875 286.6907404119318" stroke-miterlimit="10"/></g><g transform="translate(-10,-10) scale(1,1)"><path fill="none" stroke="#000000" d="M 638 632 Q 878 591 878 422.5 Q 878 254 877.1318681318681 160" stroke-miterlimit="10"/></g><g transform="translate(-10,-10) scale(1,1)"><rect fill="#C0C0C0" stroke="none" x="1247" y="407" width="89.57080078125" height="57" opacity="0.2"/></g><g transform="translate(-10,-10) scale(1,1)"><rect fill="#ffffff" stroke="none" x="1240" y="400" width="89.57080078125" height="57"/></g><g transform="translate(-10,-10) scale(1,1)"><path fill="none" stroke="#000000" d="M 1240 400 L 1329.57080078125 400 L 1329.57080078125 457 L 1240 457 L 1240 400 Z Z" stroke-miterlimit="10"/></g><g transform="translate(-10,-10) scale(1,1)"><path fill="none" stroke="#000000" d="M 1240 425 L 1329.57080078125 425" stroke-miterlimit="10"/></g><g transform="translate(-10,-10) scale(1,1)"><path fill="none" stroke="#000000" d="M 1240 435 L 1329.57080078125 435" stroke-miterlimit="10"/></g><g transform="translate(-10,-10) scale(1,1)"><g><path fill="none" stroke="none"/><text fill="#000000" stroke="none" font-family="Arial" font-size="13px" font-style="normal" font-weight="bold" text-decoration="none" x="1260.9404296875" y="419.5">Selector</text></g></g><g transform="translate(-10,-10) scale(1,1)"><g><path fill="none" stroke="none"/><text fill="#000000" stroke="none" font-family="Arial" font-size="13px" font-style="normal" font-weight="normal" text-decoration="none" x="1245" y="452.5">+select()</text></g></g><g transform="translate(-10,-10) scale(1,1)"><path fill="none" stroke="#000000" d="M 1091 429 L 1239 428" stroke-miterlimit="10" stroke-dasharray="3"/></g><g transform="translate(-10,-10) scale(1,1)"><path fill="none" stroke="#000000" d="M 1228.865999154907 432.278086823763 L 1239 428 L 1228.8091150782968 423.8592434854721" stroke-miterlimit="10"/></g></g></svg>