<?xml version="1.0" encoding="UTF-8" standalone="no"?>
<!DOCTYPE svg PUBLIC "-//W3C//DTD SVG 1.0//EN" "http://www.w3.org/TR/2001/REC-SVG-20010904/DTD/svg10.dtd">
<!-- Generated by Microsoft Visio 11.0, SVG Export, v1.0 classloader.svg Page-1 -->
<svg xmlns="http://www.w3.org/2000/svg" xmlns:v="http://schemas.microsoft.com/visio/2003/SVGExtensions/" width="8.26772in"
		height="11.6929in" viewBox="0 0 595.276 841.89" xml:space="preserve" color-interpolation-filters="sRGB" class="st4">
	<v:documentProperties v:langID="1033" v:viewMarkup="false">
		<v:userDefs>
			<v:ud v:nameU="msvNoAutoConnect" v:val="VT0(1):26"/>
		</v:userDefs>
	</v:documentProperties>

	<style type="text/css">
	<![CDATA[
		.st1 {fill:#ffffff}
		.st2 {stroke:#000000;stroke-linecap:round;stroke-linejoin:round;stroke-width:0.24}
		.st3 {fill:#000000;font-family:Arial;font-size:0.666664em;font-weight:bold}
		.st4 {fill:none;fill-rule:evenodd;font-size:12;overflow:visible;stroke-linecap:square;stroke-miterlimit:3}
		.st5 {stroke:#000000;stroke-dasharray:3.6,2.16;stroke-linecap:round;stroke-linejoin:round;stroke-width:0.24}
		.st6 {marker-end:url(#mrkr12-76);stroke:#000000;stroke-linecap:round;stroke-linejoin:round;stroke-width:0.24}
		.st7 {fill:#000000;fill-opacity:1;stroke:#000000;stroke-opacity:1;stroke-width:0.08695652173913}
		.st8 {fill:#ffffff;stroke:none;stroke-linecap:butt;stroke-width:7.2}
		.st9 {fill:#000000;font-family:Arial;font-size:0.666664em}
		.st10 {fill:#e6e6e6;stroke:#000000;stroke-linecap:round;stroke-linejoin:round;stroke-width:0.24}
		.st11 {fill:#e8eef7;stroke:#000000;stroke-linecap:round;stroke-linejoin:round;stroke-width:0.24}
		.st12 {marker-end:url(#mrkr1-129);stroke:#000000;stroke-linecap:round;stroke-linejoin:round;stroke-width:0.239976}
		.st13 {fill:#000000;fill-opacity:1;stroke:#000000;stroke-opacity:1;stroke-width:0.086948582161584}
	]]>
	</style>

	<defs id="Masters">
		<symbol id="master2" v:mID="2" class="st4">
			<title>Actor</title>
			<g id="master-shape5-62" v:mID="5" v:groupContext="shape">
				<title>Actor.69</title>
				<v:userDefs>
					<v:ud v:nameU="F" v:val="VT0(1):26"/>
					<v:ud v:nameU="Format" v:val="VT0(0):26"/>
					<v:ud v:nameU="State" v:val="VT0(1):26"/>
				</v:userDefs>
				<path d="M9 814.89 A3.38203 4.50937 0 1 1 9 805.89 A3.38203 4.50937 0 1 1 9 814.89 Z" class="st1"/>
				<path d="M9 814.89 A3.38203 4.50937 0 1 1 9 805.89 A3.38203 4.50937 0 1 1 9 814.89" class="st2"/>
				<path d="M0 819.39 L9 819.39 L18 819.39" class="st2"/>
				<path d="M2.25 841.89 L9 827.49 L15.75 841.89" class="st2"/>
				<path d="M9 814.89 L9 827.49" class="st2"/>
			</g>
		</symbol>
	</defs>
	<defs id="Markers">
		<g id="lend12">
			<path d="M 3 1 L -0 0 L 3 -1 " style="stroke-linecap:round;stroke-linejoin:round;fill:none"/>
		</g>
		<marker id="mrkr12-76" class="st7" v:arrowType="12" v:arrowSize="2" orient="auto" markerUnits="strokeWidth">
			<use xlink:href="#lend12" transform="scale(-11.5,-11.5) "/>
		</marker>
		<g id="lend1">
			<path d="M 1 -1 L -0 0 L 1 1 " style="stroke-linecap:round;stroke-linejoin:round;fill:none"/>
		</g>
		<marker id="mrkr1-129" class="st13" v:arrowType="1" v:arrowSize="2" orient="auto" markerUnits="strokeWidth">
			<use xlink:href="#lend1" transform="scale(-11.501050105011,-11.501050105011) "/>
		</marker>
	</defs>
	<g v:mID="0" v:index="1" v:groupContext="foregroundPage">
		<title>Page-1</title>
		<v:pageProperties v:drawingScale="1" v:pageScale="1" v:drawingUnits="19" v:shadowOffsetX="9" v:shadowOffsetY="-9"/>
		<v:layer v:name="Connector" v:index="0"/>
		<g id="group1-1" transform="translate(135,-573.75)" v:mID="1" v:groupContext="group">
			<v:userDefs>
				<v:ud v:nameU="F" v:val="VT0(1):26"/>
				<v:ud v:nameU="Format" v:val="VT0(0):26"/>
				<v:ud v:nameU="ActiveObject" v:prompt="0,0626" v:val="VT0(0):26"/>
			</v:userDefs>
			<title>Class</title>
			<g id="shape2-2" v:mID="2" v:groupContext="shape" transform="translate(72,0)">
				<title>Sheet.2</title>
				<path d="M0 841.89 L0 805.89 L0 841.89 Z" class="st1"/>
			</g>
			<g id="shape3-5" v:mID="3" v:groupContext="shape">
				<title>Sheet.3</title>
				<path d="M72 841.89 L0 841.89 L72 841.89 Z" class="st1"/>
			</g>
			<g id="shape4-8" v:mID="4" v:groupContext="shape">
				<title>Sheet.4</title>
				<path d="M72 841.89 L0 841.89 L72 841.89 Z" class="st1"/>
			</g>
			<g id="shape5-11" v:mID="5" v:groupContext="shape">
				<title>Sheet.5</title>
				<path d="M72 841.89 L0 841.89 L72 841.89 Z" class="st1"/>
			</g>
			<g id="shape6-14" v:mID="6" v:groupContext="shape">
				<title>Sheet.6</title>
				<desc>AppClassLoader</desc>
				<v:userDefs>
					<v:ud v:nameU="TabSize" v:val="VT0(0.125):0"/>
				</v:userDefs>
				<v:textBlock v:margins="rect(4,4,4,4)"/>
				<v:textRect cx="36" cy="823.89" width="72" height="36"/>
				<path d="M72 841.89 L72 805.89 L0 805.89 L0 841.89 L72 841.89 Z M0 841.89 L0 805.89 L0 841.89 Z M72 805.89 L72 841.89
							 L72 805.89 Z" class="st1"/>
				<path d="M72 841.89 L72 805.89" class="st2"/>
				<path d="M0 841.89 L0 805.89" class="st2"/>
				<path d="M0 805.89 L72 805.89" class="st2"/>
				<path d="M0 841.89 L72 841.89" class="st2"/>
				<text x="4.21" y="826.29" class="st3" v:langID="1033"><v:paragraph v:horizAlign="1"/><v:tabList/>AppClassLoader</text>			</g>
		</g>
		<g id="group7-21" transform="translate(270,-573.75)" v:mID="7" v:groupContext="group">
			<v:userDefs>
				<v:ud v:nameU="F" v:val="VT0(1):26"/>
				<v:ud v:nameU="Format" v:val="VT0(0):26"/>
				<v:ud v:nameU="ActiveObject" v:prompt="0,0626" v:val="VT0(0):26"/>
			</v:userDefs>
			<title>Class.7</title>
			<g id="shape8-22" v:mID="8" v:groupContext="shape" transform="translate(72,0)">
				<title>Sheet.8</title>
				<path d="M0 841.89 L0 805.89 L0 841.89 Z" class="st1"/>
			</g>
			<g id="shape9-25" v:mID="9" v:groupContext="shape">
				<title>Sheet.9</title>
				<path d="M72 841.89 L0 841.89 L72 841.89 Z" class="st1"/>
			</g>
			<g id="shape10-28" v:mID="10" v:groupContext="shape">
				<title>Sheet.10</title>
				<path d="M72 841.89 L0 841.89 L72 841.89 Z" class="st1"/>
			</g>
			<g id="shape11-31" v:mID="11" v:groupContext="shape">
				<title>Sheet.11</title>
				<path d="M72 841.89 L0 841.89 L72 841.89 Z" class="st1"/>
			</g>
			<g id="shape12-34" v:mID="12" v:groupContext="shape">
				<title>Sheet.12</title>
				<desc>ExtClassLoader</desc>
				<v:userDefs>
					<v:ud v:nameU="TabSize" v:val="VT0(0.125):0"/>
				</v:userDefs>
				<v:textBlock v:margins="rect(4,4,4,4)"/>
				<v:textRect cx="36" cy="823.89" width="72" height="36"/>
				<path d="M72 841.89 L72 805.89 L0 805.89 L0 841.89 L72 841.89 Z M0 841.89 L0 805.89 L0 841.89 Z M72 805.89 L72 841.89
							 L72 805.89 Z" class="st1"/>
				<path d="M72 841.89 L72 805.89" class="st2"/>
				<path d="M0 841.89 L0 805.89" class="st2"/>
				<path d="M0 805.89 L72 805.89" class="st2"/>
				<path d="M0 841.89 L72 841.89" class="st2"/>
				<text x="5.77" y="826.29" class="st3" v:langID="1033"><v:paragraph v:horizAlign="1"/><v:tabList/>ExtClassLoader</text>			</g>
		</g>
		<g id="group13-41" transform="translate(387,-573.75)" v:mID="13" v:groupContext="group">
			<v:userDefs>
				<v:ud v:nameU="F" v:val="VT0(1):26"/>
				<v:ud v:nameU="Format" v:val="VT0(0):26"/>
				<v:ud v:nameU="ActiveObject" v:prompt="0,0626" v:val="VT0(0):26"/>
			</v:userDefs>
			<title>Class.13</title>
			<g id="shape14-42" v:mID="14" v:groupContext="shape" transform="translate(108,0)">
				<title>Sheet.14</title>
				<path d="M0 841.89 L0 805.89 L0 841.89 Z" class="st1"/>
			</g>
			<g id="shape15-45" v:mID="15" v:groupContext="shape">
				<title>Sheet.15</title>
				<path d="M108 841.89 L0 841.89 L108 841.89 Z" class="st1"/>
			</g>
			<g id="shape16-48" v:mID="16" v:groupContext="shape">
				<title>Sheet.16</title>
				<path d="M108 841.89 L0 841.89 L108 841.89 Z" class="st1"/>
			</g>
			<g id="shape17-51" v:mID="17" v:groupContext="shape">
				<title>Sheet.17</title>
				<path d="M108 841.89 L0 841.89 L108 841.89 Z" class="st1"/>
			</g>
			<g id="shape18-54" v:mID="18" v:groupContext="shape">
				<title>Sheet.18</title>
				<desc>BootstrapClassLoader</desc>
				<v:userDefs>
					<v:ud v:nameU="TabSize" v:val="VT0(0.125):0"/>
				</v:userDefs>
				<v:textBlock v:margins="rect(4,4,4,4)"/>
				<v:textRect cx="54" cy="823.89" width="108" height="36"/>
				<path d="M108 841.89 L108 805.89 L0 805.89 L0 841.89 L108 841.89 Z M0 841.89 L0 805.89 L0 841.89 Z M108 805.89 L108
							 841.89 L108 805.89 Z" class="st1"/>
				<path d="M108 841.89 L108 805.89" class="st2"/>
				<path d="M0 841.89 L0 805.89" class="st2"/>
				<path d="M0 805.89 L108 805.89" class="st2"/>
				<path d="M0 841.89 L108 841.89" class="st2"/>
				<text x="11.1" y="826.29" class="st3" v:langID="1033"><v:paragraph v:horizAlign="1"/><v:tabList/>BootstrapClassLoader</text>			</g>
		</g>
		<use id="shape19-61" v:mID="19" xlink:href="#master2" transform="translate(63,-510.75)">
			<title>Actor</title>
		</use>
		<g id="shape20-68" v:mID="20" v:groupContext="shape" transform="translate(171,1110.03) scale(1,-1)">
			<title>Lifeline</title>
			<path d="M0 841.89 L0 634.89" class="st5"/>
		</g>
		<g id="shape21-71" v:mID="21" v:groupContext="shape" transform="translate(81,-528.75)">
			<title>Message (seq.diag)</title>
			<desc>loadClass</desc>
			<v:userDefs>
				<v:ud v:nameU="State" v:val="VT0(1):26"/>
				<v:ud v:nameU="LostFound" v:val="VT0(0):26"/>
			</v:userDefs>
			<v:textBlock v:margins="rect(4,4,4,4)"/>
			<v:textRect cx="45" cy="832.89" width="45.36" height="17.6036"/>
			<path d="M0 841.89 L90 841.89" class="st6"/>
			<rect v:rectContext="textBkgnd" x="26.3225" y="828.09" width="35.1291" height="9.59985" class="st8"/>
			<text x="26.32" y="835.29" class="st9" v:langID="1033"><v:paragraph/><v:tabList/>loadClass</text>		</g>
		<g id="shape22-79" v:mID="22" v:groupContext="shape" transform="translate(174.6,-492.75)">
			<title>Message (seq.diag).22</title>
			<desc>loadClass</desc>
			<v:userDefs>
				<v:ud v:nameU="State" v:val="VT0(1):26"/>
				<v:ud v:nameU="LostFound" v:val="VT0(0):26"/>
			</v:userDefs>
			<v:textBlock v:margins="rect(4,4,4,4)"/>
			<v:textRect cx="65.7" cy="832.89" width="45.36" height="17.6036"/>
			<path d="M0 841.89 L131.4 841.89" class="st6"/>
			<rect v:rectContext="textBkgnd" x="47.0225" y="828.09" width="35.1291" height="9.59985" class="st8"/>
			<text x="47.02" y="835.29" class="st9" v:langID="1033"><v:paragraph/><v:tabList/>loadClass</text>		</g>
		<g id="shape23-86" v:mID="23" v:groupContext="shape" transform="translate(306,1110.03) scale(1,-1)">
			<title>Lifeline.23</title>
			<path d="M0 841.89 L0 634.89" class="st5"/>
		</g>
		<g id="shape24-89" v:mID="24" v:groupContext="shape" transform="translate(1144.29,349.14) rotate(90)">
			<title>Exec.Occurrence, Coregion</title>
			<path d="M0 841.89 L0 834.69 L90 834.69 L90 841.89 L0 841.89 Z" class="st10"/>
		</g>
		<g id="shape25-91" v:mID="25" v:groupContext="shape" transform="translate(1009.29,313.14) rotate(90)">
			<title>Exec.Occurrence, Coregion.25</title>
			<path d="M0 841.89 L0 834.69 L144 834.69 L144 841.89 L0 841.89 Z" class="st10"/>
		</g>
		<g id="shape26-93" v:mID="26" v:groupContext="shape" transform="translate(309.6,-474.75)">
			<title>Message (seq.diag).26</title>
			<desc>loadClass</desc>
			<v:userDefs>
				<v:ud v:nameU="State" v:val="VT0(1):26"/>
				<v:ud v:nameU="LostFound" v:val="VT0(0):26"/>
			</v:userDefs>
			<v:textBlock v:margins="rect(4,4,4,4)"/>
			<v:textRect cx="65.7" cy="832.89" width="45.36" height="17.6036"/>
			<path d="M0 841.89 L131.4 841.89" class="st6"/>
			<rect v:rectContext="textBkgnd" x="47.0225" y="828.09" width="35.1291" height="9.59985" class="st8"/>
			<text x="47.02" y="835.29" class="st9" v:langID="1033"><v:paragraph/><v:tabList/>loadClass</text>		</g>
		<g id="shape27-100" v:mID="27" v:groupContext="shape" transform="translate(441,1110.03) scale(1,-1)">
			<title>Lifeline.27</title>
			<path d="M0 841.89 L0 634.89" class="st5"/>
		</g>
		<g id="shape28-103" v:mID="28" v:groupContext="shape" transform="translate(1279.29,367.14) rotate(90)">
			<title>Exec.Occurrence, Coregion.28</title>
			<path d="M0 841.89 L0 834.69 L45 834.69 L45 841.89 L0 841.89 Z" class="st10"/>
		</g>
		<g id="shape29-105" v:mID="29" v:groupContext="shape" transform="translate(441,1254.03) rotate(180)">
			<title>Message (seq.diag).29</title>
			<v:userDefs>
				<v:ud v:nameU="State" v:val="VT0(1):26"/>
				<v:ud v:nameU="LostFound" v:val="VT0(0):26"/>
			</v:userDefs>
			<path d="M0 841.89 L131.4 841.89" class="st6"/>
		</g>
		<g id="shape30-110" v:mID="30" v:groupContext="shape" transform="translate(306,1281.03) rotate(180)">
			<title>Message (seq.diag).30</title>
			<v:userDefs>
				<v:ud v:nameU="State" v:val="VT0(1):26"/>
				<v:ud v:nameU="LostFound" v:val="VT0(0):26"/>
			</v:userDefs>
			<path d="M0 841.89 L131.4 841.89" class="st6"/>
		</g>
		<g id="shape31-115" v:mID="31" v:groupContext="shape" transform="translate(202.5,-778.5)">
			<title>Rectangle</title>
			<desc>Bootstrap ClassLoader</desc>
			<v:userDefs>
				<v:ud v:nameU="visVersion" v:val="VT0(12):26"/>
			</v:userDefs>
			<v:textBlock v:margins="rect(4,4,4,4)"/>
			<v:textRect cx="54" cy="823.89" width="108" height="36"/>
			<rect x="0" y="805.89" width="108" height="36" class="st11"/>
			<text x="13.31" y="826.29" class="st9" v:langID="1033"><v:paragraph v:horizAlign="1"/><v:tabList/>Bootstrap ClassLoader</text>		</g>
		<g id="shape32-118" v:mID="32" v:groupContext="shape" transform="translate(202.5,-711)">
			<title>Rectangle.2</title>
			<desc>Extension ClassLoader</desc>
			<v:userDefs>
				<v:ud v:nameU="visVersion" v:val="VT0(12):26"/>
			</v:userDefs>
			<v:textBlock v:margins="rect(4,4,4,4)"/>
			<v:textRect cx="54" cy="823.89" width="108" height="36"/>
			<rect x="0" y="805.89" width="108" height="36" class="st11"/>
			<text x="12.87" y="826.29" class="st9" v:langID="1033"><v:paragraph v:horizAlign="1"/><v:tabList/>Extension ClassLoader</text>		</g>
		<g id="shape33-121" v:mID="33" v:groupContext="shape" transform="translate(202.5,-639)">
			<title>Rectangle.3</title>
			<desc>Application ClassLoader</desc>
			<v:userDefs>
				<v:ud v:nameU="visVersion" v:val="VT0(12):26"/>
			</v:userDefs>
			<v:textBlock v:margins="rect(4,4,4,4)"/>
			<v:textRect cx="54" cy="823.89" width="108" height="36"/>
			<rect x="0" y="805.89" width="108" height="36" class="st11"/>
			<text x="10.86" y="826.29" class="st9" v:langID="1033"><v:paragraph v:horizAlign="1"/><v:tabList/>Application ClassLoader</text>		</g>
		<g id="shape34-124" v:mID="34" v:groupContext="shape" v:layerMember="0" transform="translate(247.5,-675)">
			<title>Dynamic connector</title>
			<desc>parent</desc>
			<v:textBlock v:margins="rect(4,4,4,4)"/>
			<v:textRect cx="9" cy="823.89" width="40" height="17.6036"/>
			<path d="M9 841.89 L9 805.89" class="st12"/>
			<rect v:rectContext="textBkgnd" x="-2.34167" y="819.09" width="22.6835" height="9.59985" class="st8"/>
			<text x="-2.34" y="826.29" class="st9" v:langID="1033"><v:paragraph v:horizAlign="1"/><v:tabList/>parent</text>		</g>
		<g id="shape35-132" v:mID="35" v:groupContext="shape" v:layerMember="0" transform="translate(247.5,-747)">
			<title>Dynamic connector.5</title>
			<desc>parent</desc>
			<v:textBlock v:margins="rect(4,4,4,4)"/>
			<v:textRect cx="9" cy="826.14" width="40" height="17.6036"/>
			<path d="M9 841.89 L9 810.39" class="st12"/>
			<rect v:rectContext="textBkgnd" x="-2.34167" y="821.34" width="22.6835" height="9.59985" class="st8"/>
			<text x="-2.34" y="828.54" class="st9" v:langID="1033"><v:paragraph v:horizAlign="1"/><v:tabList/>parent</text>		</g>
	</g>
</svg>
